<?xml version="1.0" encoding="UTF-8"?><svg id="Layer_2" xmlns="http://www.w3.org/2000/svg" viewBox="0 0 92.1454 59.2594"><g id="Components"><g id="f891f279-c514-483c-985e-a797f5351971_13"><path d="M90.1562,57.206c-.1925-.3529-.2886-.77-.2886-1.155V3.1444c0-.1925.0321-.385.0962-.5775.1285-.4171.321-.7702.5775-1.0267l1.6042-1.5402h-12.7694l1.6042,1.5402c.2888.2565.4813.5775.5775.9625.0642.2567.0963.4492.0963.6417v52.9066c0,.385-.0963.77-.2567,1.1229-.1283.2246-.2567.4171-.4171.5775l-1.54,1.5081h12.6411l-1.5402-1.5081c-.1604-.1604-.2886-.3529-.385-.5454ZM88.3274,57.4627h-5.1013c.1604-.4492.2246-.9306.2246-1.4117V3.1444c0-.4171-.0642-.77-.1604-1.0909v-.0321c-.0321-.0962-.0321-.1604-.0642-.2246h5.1013c-.0319.0963-.064.1925-.0962.2567l-.0321.0642c-.0642.2886-.1283.6417-.1283,1.0267v52.9066c0,.4811.0962.9625.2565,1.4117Z" style="fill:#af8239;"/><path d="M90.1562,57.206c-.1925-.3529-.2886-.77-.2886-1.155V3.1444c0-.1925.0321-.385.0962-.5775.1285-.4171.321-.7702.5775-1.0267l1.6042-1.5402h-12.7694l1.6042,1.5402c.2888.2565.4813.5775.5775.9625.0642.2567.0963.4492.0963.6417v24.5121h-1.0267v2.0534h1.0267v26.3411c0,.385-.0963.77-.2567,1.1229-.1283.2246-.2567.4171-.4171.5775l-1.54,1.5081h12.6411l-1.5402-1.5081c-.1604-.1604-.2886-.3529-.385-.5454ZM88.3274,57.4627h-5.1013c.1604-.4492.2246-.9306.2246-1.4117V3.1444c0-.4171-.0642-.77-.1604-1.0909v-.0321c-.0321-.0962-.0321-.1604-.0642-.2246h5.1013c-.0319.0963-.064.1925-.0962.2567l-.0321.0642c-.0642.2886-.1283.6417-.1283,1.0267v52.9066c0,.4811.0962.9625.2565,1.4117Z" style="fill:#af8239;"/><path d="M50.757,57.7194c-.1604-.1606-.2888-.321-.385-.5135-.0963-.1604-.1925-.3529-.2246-.5775-.0321-.1925-.0642-.385-.0642-.5775V3.1444c0-.1285,0-.2246.0321-.3531.0321-.1604.0642-.2886.1283-.4169.0963-.3531.2567-.6096.5135-.8342l1.5721-1.5402h-12.5448l1.4757,1.5081c.2567.2886.4492.6096.5135.9946.064.0962.064.2246.064.3529.0321.0963.0321.1925.0321.2888v52.9066c0,.1925-.0321.385-.0642.5775-.064.4492-.2565.8342-.5454,1.1229l-1.4438,1.5081h12.545l-1.6042-1.54ZM43.4418,57.4627c.0642-.2246.1285-.4171.1604-.6738.0321-.2246.0642-.4811.0642-.7379V3.1444c0-.385-.0642-.7381-.1604-1.0909v-.1283c0-.0642,0-.0963-.0321-.1285h5.0693c-.0963.2567-.1604.4813-.1925.7381-.0321.1925-.0642.4171-.0642.6096v52.9066c0,.4811.0642.9625.2246,1.4117h-5.0693Z" style="fill:#af8239;"/><path d="M50.757,57.7194c-.1604-.1606-.2888-.321-.385-.5135-.0963-.1604-.1604-.3529-.2246-.5775-.0321-.1925-.0642-.385-.0642-.5775v-26.3411h1.0267v-2.0534h-1.0267V3.1444c0-.1285,0-.2246.0321-.3531.0321-.1604.0642-.2886.1283-.4169.0963-.3531.2567-.6096.5135-.8342l1.5721-1.5402h-12.7694l1.6361,1.5402c.2567.2565.4492.5775.5777.9625.064.0962.064.2246.064.3529.0321.0963.0321.1925.0321.2888v24.5121h-1.0267v2.0534h1.0267v26.3411c0,.1925-.0321.385-.0642.5775-.064.1925-.1283.3529-.2244.5454-.0963.2246-.2246.4171-.3852.5775l-1.54,1.5081h12.7054l-1.6042-1.54ZM43.4418,57.4627c.0642-.2246.1285-.4171.1604-.6738.0321-.2246.0642-.4811.0642-.7379V3.1444c0-.385-.0642-.7381-.1604-1.0909v-.1283c0-.0642,0-.0963-.0321-.1285h5.0693c-.0963.2567-.1604.4813-.1925.7381-.0321.1925-.0642.4171-.0642.6096v52.9066c0,.4811.0642.9625.2246,1.4117h-5.0693Z" style="fill:#af8239;"/><rect x="49.1528" y="27.6565" width="33.7523" height="2.0534" style="fill:#af8239;"/><path d="M81.654,26.6299v1.0265h-31.5708v-1.0265h-1.7967v4.1067h1.7967v-1.0267h31.5708v1.0267h1.7967v-4.1067h-1.7967Z" style="fill:#af8239;"/><path d="M50.757,57.7194c-.1604-.1606-.2888-.321-.385-.5135-.0963-.1604-.1604-.3529-.2246-.5775-.0321-.1925-.0642-.385-.0642-.5775V3.1444c0-.1285,0-.2246.0321-.3531,0-.064.0321-.1604.0321-.2244.0321-.0642.0321-.1285.0962-.1925.0963-.3531.2567-.6096.5135-.8342l1.5721-1.5402h-12.7694l1.6361,1.5402c.2567.2565.4492.5775.5777.9625.064.0962.064.2246.064.3529.0321.0963.0321.1925.0321.2888v52.9066c0,.1925-.0321.385-.0642.5775-.064.1925-.1283.3529-.2244.5454-.0963.2246-.2246.4171-.3852.5775l-1.54,1.5081h12.6411l-1.54-1.5081v-.0319ZM43.4097,57.4627c.0642-.2246.1285-.4492.1925-.6738.0321-.2246.0642-.4811.0642-.7379V3.1444c0-.4171-.0962-.77-.1604-1.0909v-.0321c-.0321-.0962-.0642-.1604-.0642-.2246h5.0693c-.0321.0963-.0642.1925-.0963.2567v.0642c-.0319.1283-.064.2567-.064.4171-.0321.1925-.0642.4171-.0642.6096v52.9066c0,.4811.0642.9625.2246,1.4117h-5.1015Z" style="fill:#af8239;"/><path d="M50.757,57.7194c-.1604-.1606-.2888-.321-.385-.5135-.0963-.1604-.1604-.3529-.2246-.5775-.0321-.1925-.0642-.385-.0642-.5775v-26.3411h1.0267v-2.0534h-1.0267V3.1444c0-.1285,0-.2246.0321-.3531.0321-.1604.0642-.2886.1283-.4169.0963-.3531.2567-.6096.5135-.8342l1.5721-1.5402h-12.7694l1.6361,1.5402c.2567.2565.4492.5775.5777.9625.064.0962.064.2246.064.3529.0321.0963.0321.1925.0321.2888v24.5121h-1.0267v2.0534h1.0267v26.3411c0,.1925-.0321.385-.0642.5775-.064.1925-.1283.3529-.2244.5454-.0963.2246-.2246.4171-.3852.5775l-1.54,1.5081h12.7054l-1.6042-1.54ZM43.4418,57.4627c.0642-.2246.1285-.4171.1604-.6738.0321-.2246.0642-.4811.0642-.7379V3.1444c0-.385-.0642-.7381-.1604-1.0909v-.1283c0-.0642,0-.0963-.0321-.1285h5.0372c-.0321.0963-.0642.1925-.0963.2567v.0642c-.0319.1283-.064.2567-.064.4171-.0321.1925-.0642.4171-.0642.6096v52.9066c0,.4811.0642.9625.2246,1.4117h-5.0693Z" style="fill:#af8239;"/><path d="M10.2669,56.051V3.3369c0-.7381.2565-1.3477.7058-1.7967l1.6042-1.5402H0l1.4759,1.5081c.385.4492.6096.9946.6096,1.6363v52.9066c0,.7058-.2246,1.2832-.6417,1.7004l-1.4117,1.5081h12.5127l-1.6042-1.54c-.449-.4171-.6736-.9946-.6736-1.6684ZM3.6576,57.4627c.1283-.4171.2246-.8984.2246-1.4117V3.1444c0-.4813-.0642-.9306-.2246-1.3477h5.0691c-.1604.4813-.2565.9946-.2565,1.5402v52.7141c0,.5133.0962.9946.2565,1.4117H3.6576Z" style="fill:#af8239;"/><path d="M10.2669,56.051v-26.3411h1.0267v-2.0534h-1.0267V3.3369c0-.7381.2565-1.3477.7058-1.7967l1.6042-1.5402H0l1.4759,1.5081c.385.4492.6096.9946.6096,1.6363v52.9066c0,.7058-.2246,1.2832-.6417,1.7004l-1.4117,1.5081h12.5127l-1.6042-1.54c-.449-.4171-.6736-.9946-.6736-1.6684ZM3.6576,57.4627c.1283-.4171.2246-.8984.2246-1.4117V3.1444c0-.4813-.0642-.9306-.2246-1.3477h5.0691c-.1604.4813-.2565.9946-.2565,1.5402v52.7141c0,.5133.0962.9946.2565,1.4117H3.6576Z" style="fill:#af8239;"/><rect x="9.3364" y="27.6565" width="33.7525" height="2.0534" style="fill:#af8239;"/><path d="M41.8697,26.6299v1.0265H10.2669v-1.0265h-1.7967v4.1067h1.7967v-1.0267h31.6027v1.0267h1.7967v-4.1067h-1.7967Z" style="fill:#af8239;"/></g></g></svg>