<?xml version="1.0" encoding="UTF-8"?><svg id="Layer_2" xmlns="http://www.w3.org/2000/svg" viewBox="0 0 126.8195 19.2916"><g id="Components"><g id="dcc9eb67-a0bc-4138-b819-3fc8c9571e48_22"><path d="M33.4708,0h2.8726v5.4803h4.7062V0h2.8726v13.4461h-2.8726v-5.4803h-4.7062v5.4803h-2.8726V0Z" style="fill:#182339;"/><path d="M51.0321,0h2.73l6.0101,13.4461h-2.9948l-1.7521-3.9117h-5.2156l-1.7521,3.9117h-2.9948L51.0321,0ZM54.0271,7.2935l-1.6095-3.606-1.6095,3.606h3.219Z" style="fill:#182339;"/><path d="M60.913,0h5.4397c1.9013,0,3.2495.4212,4.044,1.2631.7945.8423,1.1918,1.8676,1.1918,3.0763,0,1.0731-.248,1.9832-.7436,2.73-.496.7471-1.2936,1.209-2.3938,1.3854l-.5909.0203,3.0153,4.971h-3.1782l-2.9541-4.971h-.9779v4.971h-2.8522V0ZM66.3527,6.1118c.7875,0,1.3783-.1426,1.7724-.4278.3937-.2851.5908-.7333.5908-1.3446,0-.5838-.1935-1.0422-.5807-1.3752-.387-.3327-.988-.4991-1.803-.4991h-2.5669v3.6467h2.5874Z" style="fill:#182339;"/><path d="M76.478,2.4854l-4.0542-.0203V0h10.9607v2.4651l-4.0542.0203-.0203,10.9607h-2.8522l.0203-10.9607Z" style="fill:#182339;"/><path d="M84.5253,0h3.0356l4.0134,8.4343,4.0746-8.4343h3.0356v13.4461h-2.8726V5.4192l-3.3413,8.0269h-1.8335l-3.2394-7.9658v7.9658h-2.8726V0Z" style="fill:#182339;"/><path d="M105.7946,0h2.73l6.0101,13.4461h-2.9948l-1.7521-3.9117h-5.2156l-1.7521,3.9117h-2.9948l5.9692-13.4461ZM108.7895,7.2935l-1.6095-3.606-1.6095,3.606h3.219Z" style="fill:#182339;"/><path d="M115.6755,0h2.5059l5.786,8.638V0h2.8521v13.4461h-2.4447l-5.847-8.4751v8.4751h-2.8522V0Z" style="fill:#182339;"/><path d="M33.1475,14.8156h.6481l1.3963,3.5808,1.4563-3.5808h.6481l-1.8171,4.4092h-.6013l-1.7303-4.4092Z" style="fill:#182339;"/><path d="M39.1265,14.8156h2.9796v.628h-2.3516v1.2893h2.111v.5544h-2.111v1.296h2.3449v.6214h-2.973v-4.3891Z" style="fill:#182339;"/><path d="M43.9365,14.8156h.5813l2.2848,3.3669v-3.3669h.6346v4.4092h-.5677l-2.3048-3.3469v3.3469h-.628v-4.4092Z" style="fill:#182339;"/><path d="M50.6772,15.3702l-1.4096-.0067v-.5478h3.454v.5478l-1.4163.0067-.0134,3.8546h-.628l.0134-3.8546Z" style="fill:#182339;"/><path d="M55.3871,19.0778c-.2673-.1424-.4733-.345-.6181-.6078-.1446-.2627-.2171-.5657-.2171-.9086v-2.7457h.628v2.699c0,.3652.1002.6603.3006.8851.2005.225.4832.3374.8484.3374.3609,0,.639-.1124.8351-.3374.196-.2248.294-.5199.294-.8851v-2.699h.6279v2.7457c0,.3429-.0723.6447-.2171.9051-.1448.2606-.3506.4633-.6179.608-.2672.1448-.5768.2171-.9286.2171-.3563,0-.668-.0713-.9351-.2138Z" style="fill:#182339;"/><path d="M59.9164,14.8156h1.6636c.5789,0,.9853.1314,1.2191.3941.2339.2629.3508.5813.3508.9553,0,.3384-.0891.6258-.2672.8618-.1782.2361-.4656.3719-.8618.4075l-.294.0067,1.1425,1.7837h-.7082l-1.1223-1.7837h-.4944v1.7837h-.628v-4.4092ZM61.58,16.9066c.3116,0,.5467-.0601.7048-.1803.158-.1203.237-.3074.237-.5612,0-.236-.0746-.4286-.2238-.5778s-.3907-.2238-.7247-.2238h-1.0289v1.5431h1.0355Z" style="fill:#182339;"/><path d="M64.9802,14.8156h2.9796v.628h-2.3516v1.2893h2.111v.5544h-2.111v1.296h2.3449v.6214h-2.973v-4.3891Z" style="fill:#182339;"/><path d="M74.7472,14.8156h.608l1.9707,4.4092h-.6613l-.6414-1.4297-1.9307-.0067-.6346,1.4364h-.6614l1.9508-4.4092ZM75.8028,17.2941l-.7483-1.6768-.7415,1.6768h1.4898Z" style="fill:#182339;"/><path d="M79.163,14.8156h1.55c.4051,0,.785.0802,1.139.2406.354.1602.639.403.8551.7281.2159.3251.324.7214.324,1.1891,0,.4454-.1047.8395-.3141,1.1824-.2094.3431-.4933.6069-.8517.7917-.3586.1849-.754.2773-1.1858.2773h-1.5232l.0067-4.4092ZM80.6796,18.6703c.3429,0,.6447-.0746.9051-.2238.2606-.1491.461-.3517.6013-.6078s.2104-.54.2104-.8518c0-.3206-.068-.6034-.2038-.8484-.1359-.2449-.3307-.4353-.5845-.5712-.2539-.1359-.5501-.2038-.8885-.2038h-.9286v3.3068h.8885Z" style="fill:#182339;"/><path d="M84.2201,14.8156h.6481l1.3963,3.5808,1.4563-3.5808h.6481l-1.8171,4.4092h-.6013l-1.7303-4.4092Z" style="fill:#182339;"/><path d="M90.1992,14.8156h.6013v4.4092h-.6013v-4.4092Z" style="fill:#182339;"/><path d="M93.5296,19.1347c-.2473-.1047-.4466-.2572-.5979-.4577-.1515-.2003-.2317-.4409-.2406-.7214h.5813c.0089.196.0701.3564.1837.481.1136.1247.2483.2149.4042.2706.1558.0557.3073.0835.4543.0835.2627,0,.4886-.0567.6781-.1703.1892-.1136.286-.2906.2905-.5311.0089-.2449-.0723-.432-.2438-.5612-.1714-.1292-.4509-.2272-.8383-.2939-1.0467-.1515-1.57-.5768-1.57-1.2761,0-.2447.0668-.4586.2005-.6413.1337-.1825.3139-.3229.5412-.4209.2271-.0979.481-.147.7615-.147.285,0,.5499.0535.795.1604.2449.1069.442.2605.5912.461.1492.2003.226.4365.2305.7081h-.5811c-.0134-.2716-.1215-.4776-.324-.6179-.2027-.1403-.4399-.2104-.7115-.2104-.245,0-.4555.0658-.6313.1971-.176.1314-.2639.3107-.2639.5377,0,.3876.3407.6369,1.0222.7483.5477.0846.9564.2337,1.2258.4476.2695.2137.4042.5122.4042.8952,0,.4053-.1481.7093-.4443.9118-.2961.2027-.6646.304-1.1055.304-.294,0-.5646-.0524-.8117-.157Z" style="fill:#182339;"/><path d="M98.8639,19.0044c-.3474-.1916-.6246-.4577-.8318-.7984-.207-.3407-.3107-.7249-.3107-1.1524,0-.4365.1025-.8306.3074-1.1824.2048-.3518.4821-.6268.8316-.8251.3496-.1981.7338-.2973,1.1524-.2973.4231,0,.8061.098,1.1491.294.3429.196.6133.4676.8116.815.1981.3474.2973.737.2973,1.169,0,.4232-.1002.8073-.3006,1.1524-.2005.3451-.4733.6169-.8184.815-.3451.1983-.7271.2973-1.1457.2973-.4142,0-.795-.0958-1.1423-.2872ZM98.5833,17.902c.1515.2584.353.4622.6047.6113.2516.1492.5244.2238.8183.2238.2984,0,.5722-.0746.8217-.2238.2495-.1491.4466-.354.5912-.6145.1448-.2606.2171-.5513.2171-.8719,0-.334-.0734-.6323-.2204-.8952-.147-.2627-.3431-.4665-.5879-.6113-.2449-.1446-.5144-.2171-.8083-.2171s-.5689.0735-.825.2204c-.2562.147-.4599.3531-.6114.6181-.1513.2649-.2271.5645-.2271.8985,0,.3163.0757.6035.2271.8618Z" style="fill:#182339;"/><path d="M104.1013,14.8156h1.6636c.5789,0,.9853.1314,1.2191.3941.2339.2629.3508.5813.3508.9553,0,.3384-.0891.6258-.2672.8618-.1782.2361-.4656.3719-.8618.4075l-.294.0067,1.1425,1.7837h-.7082l-1.1223-1.7837h-.4944v1.7837h-.628v-4.4092ZM105.7649,16.9066c.3116,0,.5467-.0601.7048-.1803.158-.1203.237-.3074.237-.5612,0-.236-.0746-.4286-.2238-.5778s-.3907-.2238-.7247-.2238h-1.0289v1.5431h1.0355Z" style="fill:#182339;"/><path d="M110.0639,19.1347c-.2473-.1047-.4466-.2572-.5979-.4577-.1515-.2003-.2317-.4409-.2406-.7214h.5813c.0089.196.0701.3564.1837.481.1136.1247.2483.2149.4042.2706.1558.0557.3073.0835.4543.0835.2627,0,.4886-.0567.6781-.1703.1892-.1136.286-.2906.2905-.5311.0089-.2449-.0723-.432-.2438-.5612-.1714-.1292-.4509-.2272-.8383-.2939-1.0467-.1515-1.57-.5768-1.57-1.2761,0-.2447.0668-.4586.2005-.6413.1337-.1825.3139-.3229.5412-.4209.2271-.0979.481-.147.7615-.147.285,0,.5499.0535.795.1604.2449.1069.442.2605.5912.461.1492.2003.226.4365.2305.7081h-.5811c-.0134-.2716-.1215-.4776-.324-.6179-.2027-.1403-.4399-.2104-.7115-.2104-.245,0-.4555.0658-.6313.1971-.176.1314-.2639.3107-.2639.5377,0,.3876.3407.6369,1.0222.7483.5477.0846.9564.2337,1.2258.4476.2695.2137.4042.5122.4042.8952,0,.4053-.1481.7093-.4443.9118-.2961.2027-.6646.304-1.1055.304-.294,0-.5646-.0524-.8117-.157Z" style="fill:#182339;"/><path d="M29.3499,18.6231c-.0627-.1149-.094-.2507-.094-.376V1.0236c0-.0627.0105-.1253.0313-.188.0418-.1358.1045-.2507.188-.3342l.5222-.5014h-4.157l.5222.5014c.094.0835.1567.188.188.3133.0209.0836.0314.1462.0314.2089v17.2235c0,.1253-.0314.2507-.0836.3655-.0418.0731-.0836.1358-.1358.188l-.5013.4909h4.1153l-.5014-.4909c-.0522-.0522-.094-.1149-.1253-.1775ZM28.7546,18.7067h-1.6607c.0522-.1462.0731-.3029.0731-.4596V1.0236c0-.1358-.0209-.2507-.0522-.3552v-.0105c-.0105-.0313-.0105-.0522-.0209-.0731h1.6607c-.0104.0314-.0208.0627-.0313.0836l-.0105.0209c-.0209.094-.0418.2089-.0418.3342v17.2235c0,.1566.0313.3133.0835.4596Z" style="fill:#182339;"/><path d="M29.3499,18.6231c-.0627-.1149-.094-.2507-.094-.376V1.0236c0-.0627.0105-.1253.0313-.188.0418-.1358.1045-.2507.188-.3342l.5222-.5014h-4.157l.5222.5014c.094.0835.1567.188.188.3133.0209.0836.0314.1462.0314.2089v7.9798h-.3342v.6685h.3342v8.5752c0,.1253-.0314.2507-.0836.3655-.0418.0731-.0836.1358-.1358.188l-.5013.4909h4.1153l-.5014-.4909c-.0522-.0522-.094-.1149-.1253-.1775ZM28.7546,18.7067h-1.6607c.0522-.1462.0731-.3029.0731-.4596V1.0236c0-.1358-.0209-.2507-.0522-.3552v-.0105c-.0105-.0313-.0105-.0522-.0209-.0731h1.6607c-.0104.0314-.0208.0627-.0313.0836l-.0105.0209c-.0209.094-.0418.2089-.0418.3342v17.2235c0,.1566.0313.3133.0835.4596Z" style="fill:#182339;"/><path d="M16.5237,18.7903c-.0522-.0523-.094-.1045-.1253-.1672-.0314-.0522-.0627-.1149-.0731-.188-.0105-.0627-.0209-.1253-.0209-.188V1.0236c0-.0418,0-.0731.0105-.1149.0105-.0522.0209-.094.0418-.1357.0314-.1149.0836-.1985.1672-.2716l.5118-.5014h-4.0839l.4804.4909c.0836.094.1462.1985.1672.3238.0208.0313.0208.0731.0208.1149.0105.0314.0105.0627.0105.094v17.2235c0,.0627-.0105.1253-.0209.188-.0208.1462-.0835.2716-.1775.3655l-.47.4909h4.084l-.5222-.5013ZM14.1423,18.7067c.0209-.0731.0418-.1358.0522-.2194.0105-.0731.0209-.1566.0209-.2402V1.0236c0-.1253-.0209-.2403-.0522-.3552v-.0418c0-.0209,0-.0314-.0105-.0418h1.6503c-.0314.0836-.0522.1567-.0627.2403-.0105.0627-.0209.1358-.0209.1985v17.2235c0,.1566.0209.3133.0731.4596h-1.6503Z" style="fill:#182339;"/><path d="M16.5237,18.7903c-.0522-.0523-.094-.1045-.1253-.1672-.0314-.0522-.0522-.1149-.0731-.188-.0105-.0627-.0209-.1253-.0209-.188v-8.5752h.3342v-.6685h-.3342V1.0236c0-.0418,0-.0731.0105-.1149.0105-.0522.0209-.094.0418-.1357.0314-.1149.0836-.1985.1672-.2716l.5118-.5014h-4.157l.5326.5014c.0836.0835.1462.188.1881.3133.0208.0313.0208.0731.0208.1149.0105.0314.0105.0627.0105.094v7.9798h-.3342v.6685h.3342v8.5752c0,.0627-.0105.1253-.0209.188-.0208.0627-.0418.1149-.0731.1775-.0314.0731-.0731.1358-.1254.188l-.5013.4909h4.1362l-.5222-.5013ZM14.1423,18.7067c.0209-.0731.0418-.1358.0522-.2194.0105-.0731.0209-.1566.0209-.2402V1.0236c0-.1253-.0209-.2403-.0522-.3552v-.0418c0-.0209,0-.0314-.0105-.0418h1.6503c-.0314.0836-.0522.1567-.0627.2403-.0105.0627-.0209.1358-.0209.1985v17.2235c0,.1566.0209.3133.0731.4596h-1.6503Z" style="fill:#182339;"/><rect x="16.0015" y="9.0034" width="10.9879" height=".6685" style="fill:#182339;"/><path d="M26.5821,8.6693v.3342h-10.2777v-.3342h-.5849v1.3369h.5849v-.3342h10.2777v.3342h.5849v-1.3369h-.5849Z" style="fill:#182339;"/><path d="M16.5237,18.7903c-.0522-.0523-.094-.1045-.1253-.1672-.0314-.0522-.0522-.1149-.0731-.188-.0105-.0627-.0209-.1253-.0209-.188V1.0236c0-.0418,0-.0731.0105-.1149,0-.0208.0105-.0522.0105-.0731.0105-.0209.0105-.0418.0313-.0627.0314-.1149.0836-.1985.1672-.2716l.5118-.5014h-4.157l.5326.5014c.0836.0835.1462.188.1881.3133.0208.0313.0208.0731.0208.1149.0105.0314.0105.0627.0105.094v17.2235c0,.0627-.0105.1253-.0209.188-.0208.0627-.0418.1149-.0731.1775-.0314.0731-.0731.1358-.1254.188l-.5013.4909h4.1153l-.5013-.4909v-.0104ZM14.1318,18.7067c.0209-.0731.0418-.1462.0627-.2194.0105-.0731.0209-.1566.0209-.2402V1.0236c0-.1358-.0313-.2507-.0522-.3552v-.0105c-.0105-.0313-.0209-.0522-.0209-.0731h1.6503c-.0105.0314-.0209.0627-.0314.0836v.0209c-.0104.0418-.0208.0836-.0208.1358-.0105.0627-.0209.1358-.0209.1985v17.2235c0,.1566.0209.3133.0731.4596h-1.6608Z" style="fill:#182339;"/><path d="M16.5237,18.7903c-.0522-.0523-.094-.1045-.1253-.1672-.0314-.0522-.0522-.1149-.0731-.188-.0105-.0627-.0209-.1253-.0209-.188v-8.5752h.3342v-.6685h-.3342V1.0236c0-.0418,0-.0731.0105-.1149.0105-.0522.0209-.094.0418-.1357.0314-.1149.0836-.1985.1672-.2716l.5118-.5014h-4.157l.5326.5014c.0836.0835.1462.188.1881.3133.0208.0313.0208.0731.0208.1149.0105.0314.0105.0627.0105.094v7.9798h-.3342v.6685h.3342v8.5752c0,.0627-.0105.1253-.0209.188-.0208.0627-.0418.1149-.0731.1775-.0314.0731-.0731.1358-.1254.188l-.5013.4909h4.1362l-.5222-.5013ZM14.1423,18.7067c.0209-.0731.0418-.1358.0522-.2194.0105-.0731.0209-.1566.0209-.2402V1.0236c0-.1253-.0209-.2403-.0522-.3552v-.0418c0-.0209,0-.0314-.0105-.0418h1.6398c-.0105.0314-.0209.0627-.0314.0836v.0209c-.0104.0418-.0208.0836-.0208.1358-.0105.0627-.0209.1358-.0209.1985v17.2235c0,.1566.0209.3133.0731.4596h-1.6503Z" style="fill:#182339;"/><path d="M3.3424,18.2471V1.0863c0-.2403.0835-.4387.2298-.5849l.5222-.5014H0l.4805.4909c.1253.1462.1985.3238.1985.5327v17.2235c0,.2298-.0731.4178-.2089.5535l-.4596.4909h4.0734l-.5222-.5013c-.1462-.1358-.2193-.3238-.2193-.5432ZM1.1907,18.7067c.0418-.1358.0731-.2925.0731-.4596V1.0236c0-.1567-.0209-.3029-.0731-.4387h1.6502c-.0522.1567-.0835.3238-.0835.5014v17.1608c0,.1671.0313.3238.0835.4596h-1.6502Z" style="fill:#182339;"/><path d="M3.3424,18.2471v-8.5752h.3342v-.6685h-.3342V1.0863c0-.2403.0835-.4387.2298-.5849l.5222-.5014H0l.4805.4909c.1253.1462.1985.3238.1985.5327v17.2235c0,.2298-.0731.4178-.2089.5535l-.4596.4909h4.0734l-.5222-.5013c-.1462-.1358-.2193-.3238-.2193-.5432ZM1.1907,18.7067c.0418-.1358.0731-.2925.0731-.4596V1.0236c0-.1567-.0209-.3029-.0731-.4387h1.6502c-.0522.1567-.0835.3238-.0835.5014v17.1608c0,.1671.0313.3238.0835.4596h-1.6502Z" style="fill:#182339;"/><rect x="3.0394" y="9.0034" width="10.988" height=".6685" style="fill:#182339;"/><path d="M13.6305,8.6693v.3342H3.3424v-.3342h-.5849v1.3369h.5849v-.3342h10.2881v.3342h.5849v-1.3369h-.5849Z" style="fill:#182339;"/></g></g></svg>