<?xml version="1.0" encoding="UTF-8"?><svg id="Layer_2" xmlns="http://www.w3.org/2000/svg" viewBox="0 0 117.6411 53.8498"><g id="Components"><g id="_2f4a9528-c6a0-44e6-9ce3-876187a59db3_22"><path d="M72.5606,17.83c-.06-.11-.09-.24-.09-.36V.98c0-.06.01-.12.03-.18.04-.13.1-.2401.18-.32l.5-.48h-3.98l.5.48c.09.08.15.18.18.3.02.08.03.14.03.2v16.49c0,.12-.03.24-.08.35-.04.07-.08.13-.13.18l-.48.47h3.94l-.48-.47c-.05-.05-.09-.11-.12-.17ZM71.9906,17.91h-1.59c.05-.14.07-.29.07-.44V.98c0-.13-.02-.24-.05-.34v-.01c-.01-.03-.01-.05-.02-.07h1.59c-.0099.03-.02.06-.03.08l-.01.02c-.02.09-.04.2-.04.32v16.49c0,.15.03.3.08.44Z" style="fill:#182339;"/><path d="M72.5606,17.83c-.06-.11-.09-.24-.09-.36V.98c0-.06.01-.12.03-.18.04-.13.1-.2401.18-.32l.5-.48h-3.98l.5.48c.09.08.15.18.18.3.02.08.03.14.03.2v7.64h-.32v.64h.32v8.21c0,.12-.03.24-.08.35-.04.07-.08.13-.13.18l-.48.47h3.94l-.48-.47c-.05-.05-.09-.11-.12-.17ZM71.9906,17.91h-1.59c.05-.14.07-.29.07-.44V.98c0-.13-.02-.24-.05-.34v-.01c-.01-.03-.01-.05-.02-.07h1.59c-.0099.03-.02.06-.03.08l-.01.02c-.02.09-.04.2-.04.32v16.49c0,.15.03.3.08.44Z" style="fill:#182339;"/><path d="M60.2806,17.9901c-.05-.05-.09-.1-.12-.16-.03-.05-.06-.11-.07-.18-.01-.06-.02-.12-.02-.18V.98c0-.04,0-.07.01-.11.01-.05.02-.09.04-.1299.03-.11.08-.19.16-.26l.49-.48h-3.91l.46.47c.08.09.14.19.16.31.02.03.02.07.02.11.01.03.01.06.01.09v16.49c0,.06-.01.12-.02.18-.02.14-.08.26-.17.35l-.45.47h3.91l-.5-.48ZM58.0006,17.91c.02-.07.04-.13.05-.21.01-.07.02-.15.02-.23V.98c0-.12-.02-.23-.05-.34v-.04c0-.02,0-.03-.01-.04h1.58c-.03.08-.05.15-.06.23-.01.06-.02.13-.02.19v16.49c0,.15.02.3.07.44h-1.58Z" style="fill:#182339;"/><path d="M60.2806,17.9901c-.05-.05-.09-.1-.12-.16-.03-.05-.05-.11-.07-.18-.01-.06-.02-.12-.02-.18v-8.21h.32v-.64h-.32V.98c0-.04,0-.07.01-.11.01-.05.02-.09.04-.1299.03-.11.08-.19.16-.26l.49-.48h-3.98l.5099.48c.08.08.14.18.1801.3.02.03.02.07.02.11.01.03.01.06.01.09v7.64h-.32v.64h.32v8.21c0,.06-.01.12-.02.18-.02.06-.04.11-.0699.17-.03.07-.07.13-.1201.18l-.48.47h3.96l-.5-.48ZM58.0006,17.91c.02-.07.04-.13.05-.21.01-.07.02-.15.02-.23V.98c0-.12-.02-.23-.05-.34v-.04c0-.02,0-.03-.01-.04h1.58c-.03.08-.05.15-.06.23-.01.06-.02.13-.02.19v16.49c0,.15.02.3.07.44h-1.58Z" style="fill:#182339;"/><rect x="59.7806" y="8.62" width="10.52" height=".64" style="fill:#182339;"/><path d="M69.9106,8.3v.3199h-9.84v-.3199h-.56v1.28h.56v-.32h9.84v.32h.56v-1.28h-.56Z" style="fill:#182339;"/><path d="M60.2806,17.9901c-.05-.05-.09-.1-.12-.16-.03-.05-.05-.11-.07-.18-.01-.06-.02-.12-.02-.18V.98c0-.04,0-.07.01-.11,0-.02.01-.05.01-.0699.01-.02.01-.04.03-.06.03-.11.08-.19.16-.26l.49-.48h-3.98l.5099.48c.08.08.14.18.1801.3.02.03.02.07.02.11.01.03.01.06.01.09v16.49c0,.06-.01.12-.02.18-.02.06-.04.11-.0699.17-.03.07-.07.13-.1201.18l-.48.47h3.94l-.48-.47v-.0099ZM57.9906,17.91c.02-.07.04-.14.06-.21.01-.07.02-.15.02-.23V.98c0-.13-.03-.24-.05-.34v-.01c-.01-.03-.02-.05-.02-.07h1.58c-.01.03-.02.06-.03.08v.02c-.0099.04-.02.08-.02.13-.01.06-.02.13-.02.19v16.49c0,.15.02.3.07.44h-1.59Z" style="fill:#182339;"/><path d="M60.2806,17.9901c-.05-.05-.09-.1-.12-.16-.03-.05-.05-.11-.07-.18-.01-.06-.02-.12-.02-.18v-8.21h.32v-.64h-.32V.98c0-.04,0-.07.01-.11.01-.05.02-.09.04-.1299.03-.11.08-.19.16-.26l.49-.48h-3.98l.5099.48c.08.08.14.18.1801.3.02.03.02.07.02.11.01.03.01.06.01.09v7.64h-.32v.64h.32v8.21c0,.06-.01.12-.02.18-.02.06-.04.11-.0699.17-.03.07-.07.13-.1201.18l-.48.47h3.96l-.5-.48ZM58.0006,17.91c.02-.07.04-.13.05-.21.01-.07.02-.15.02-.23V.98c0-.12-.02-.23-.05-.34v-.04c0-.02,0-.03-.01-.04h1.57c-.01.03-.02.06-.03.08v.02c-.0099.04-.02.08-.02.13-.01.06-.02.13-.02.19v16.49c0,.15.02.3.07.44h-1.58Z" style="fill:#182339;"/><path d="M47.6606,17.47V1.04c0-.23.08-.42.22-.56l.5-.48h-3.92l.46.47c.12.14.19.31.19.51v16.49c0,.22-.07.4-.2.53l-.44.47h3.9l-.5-.48c-.14-.13-.21-.31-.21-.52ZM45.6006,17.91c.04-.13.07-.28.07-.44V.98c0-.15-.02-.29-.07-.42h1.58c-.05.15-.08.31-.08.48v16.43c0,.16.03.31.08.44h-1.58Z" style="fill:#182339;"/><path d="M47.6606,17.47v-8.21h.32v-.64h-.32V1.04c0-.23.08-.42.22-.56l.5-.48h-3.92l.46.47c.12.14.19.31.19.51v16.49c0,.22-.07.4-.2.53l-.44.47h3.9l-.5-.48c-.14-.13-.21-.31-.21-.52ZM45.6006,17.91c.04-.13.07-.28.07-.44V.98c0-.15-.02-.29-.07-.42h1.58c-.05.15-.08.31-.08.48v16.43c0,.16.03.31.08.44h-1.58Z" style="fill:#182339;"/><rect x="47.3706" y="8.62" width="10.52" height=".64" style="fill:#182339;"/><path d="M57.5106,8.3v.3199h-9.85v-.3199h-.56v1.28h.56v-.32h9.85v.32h.56v-1.28h-.56Z" style="fill:#182339;"/><path d="M0,25.2264h3.6202v6.9063h5.9307v-6.9063h3.6202v16.9451h-3.6202v-6.9063H3.6202v6.9063H0v-16.9451Z" style="fill:#182339;"/><path d="M22.1314,25.2264h3.4406l7.5739,16.9451h-3.774l-2.2082-4.9296h-6.5725l-2.2082,4.9296h-3.774l7.5226-16.9451ZM25.9058,34.418l-2.0283-4.5445-2.0283,4.5445h4.0566Z" style="fill:#182339;"/><path d="M34.5836,25.2264h6.855c2.3963,0,4.0951.5308,5.0965,1.5919,1.0014,1.0614,1.5021,2.3534,1.5021,3.8766,0,1.3526-.3127,2.4995-.9374,3.4406-.6247.9414-1.6301,1.5235-3.0166,1.7458l-.7447.0258,3.7998,6.2645h-4.005l-3.7231-6.2645h-1.2323v6.2645h-3.5944v-16.9451ZM41.4386,32.9286c.9927,0,1.7371-.1796,2.2337-.5389.4963-.3596.7447-.9243.7447-1.6948,0-.7357-.244-1.3134-.7316-1.733-.488-.419-1.2454-.6291-2.2723-.6291h-3.2351v4.5958h3.2606Z" style="fill:#182339;"/><path d="M54.1991,28.3586l-5.1092-.0258v-3.1064h13.8129v3.1064l-5.1092.0258-.0255,13.8129h-3.5947l.0258-13.8129Z" style="fill:#182339;"/><path d="M64.3405,25.2264h3.8256l5.0576,10.6294,5.135-10.6294h3.8256v16.9451h-3.6202v-10.1156l-4.2107,10.1156h-2.3108l-4.082-10.0388v10.0388h-3.6202v-16.9451Z" style="fill:#182339;"/><path d="M91.1448,25.2264h3.4406l7.5739,16.9451h-3.774l-2.2082-4.9296h-6.5725l-2.2082,4.9296h-3.774l7.5226-16.9451ZM94.9192,34.418l-2.0283-4.5445-2.0283,4.5445h4.0566Z" style="fill:#182339;"/><path d="M103.597,25.2264h3.158l7.2917,10.8861v-10.8861h3.5944v16.9451h-3.081l-7.3688-10.6806v10.6806h-3.5944v-16.9451Z" style="fill:#182339;"/><path d="M8.8662,48.2091h.8168l1.7594,4.5125,1.8353-4.5125h.8168l-2.29,5.5565h-.7577l-2.1806-5.5565Z" style="fill:#182339;"/><path d="M16.4012,48.2091h3.7551v.7913h-2.9635v1.6249h2.6601v.699h-2.6601v1.6333h2.9551v.7829h-3.7467v-5.5313Z" style="fill:#182339;"/><path d="M22.4627,48.2091h.7326l2.8792,4.243v-4.243h.7997v5.5565h-.7155l-2.9044-4.2179v4.2179h-.7916v-5.5565Z" style="fill:#182339;"/><path d="M30.9578,48.9078l-1.7765-.0084v-.6903h4.3528v.6903l-1.7849.0084-.0168,4.8578h-.7913l.0168-4.8578Z" style="fill:#182339;"/><path d="M36.8932,53.5803c-.3366-.1793-.5964-.4348-.7786-.7661-.1824-.331-.2738-.7127-.2738-1.145v-3.4601h.7916v3.4014c0,.4603.1262.832.3789,1.1155.2524.2834.6089.4252,1.0692.4252.4544,0,.8053-.1417,1.0524-.4252.2468-.2834.3705-.6552.3705-1.1155v-3.4014h.7913v3.4601c0,.4323-.0914.8124-.2735,1.1409-.1824.3282-.4423.5837-.7789.7661-.3369.1824-.727.2735-1.1702.2735-.4491,0-.842-.0898-1.1789-.2695Z" style="fill:#182339;"/><path d="M42.601,48.2091h2.0963c.7298,0,1.242.1657,1.5366.4967.2946.3313.442.7326.442,1.204,0,.4264-.1122.7885-.3369,1.0859-.2244.2977-.5865.4687-1.0859.5138l-.3705.0084,1.4396,2.2477h-.8923l-1.4144-2.2477h-.6228v2.2477h-.7916v-5.5565ZM44.6974,50.8444c.3929,0,.689-.0758.8883-.2275.1992-.1514.299-.3873.299-.7071,0-.2974-.0942-.5402-.2822-.7282s-.4923-.2822-.9134-.2822h-1.2963v1.945h1.3047Z" style="fill:#182339;"/><path d="M48.9827,48.2091h3.7551v.7913h-2.9635v1.6249h2.6601v.699h-2.6601v1.6333h2.9551v.7829h-3.7467v-5.5313Z" style="fill:#182339;"/><path d="M61.2916,48.2091h.7661l2.4836,5.5565h-.8336l-.8081-1.8017-2.4333-.0084-.7997,1.8101h-.8336l2.4584-5.5565ZM62.6218,51.3326l-.943-2.1131-.9346,2.1131h1.8775Z" style="fill:#182339;"/><path d="M66.8565,48.2091h1.9534c.5106,0,.9893.101,1.4353.303.4463.202.8056.5082,1.0779.9178.2719.4096.4081.9091.4081,1.4987,0,.5613-.1318,1.058-.3956,1.49-.2639.4323-.6216.7649-1.0732.9977-.4519.2331-.9501.3493-1.4946.3493h-1.9195l.0084-5.5565ZM68.7676,53.0669c.4323,0,.8124-.0939,1.1409-.2822.3282-.1877.5809-.4432.7577-.7661.1768-.3226.2651-.6803.2651-1.0732,0-.4044-.0855-.7605-.2567-1.0695-.1713-.3083-.4168-.5483-.7366-.7198-.3201-.1709-.6934-.2567-1.1198-.2567h-1.1702v4.1675h1.1195Z" style="fill:#182339;"/><path d="M73.2294,48.2091h.8168l1.7594,4.5125,1.8353-4.5125h.8168l-2.29,5.5565h-.7577l-2.1806-5.5565Z" style="fill:#182339;"/><path d="M80.7644,48.2091h.7577v5.5565h-.7577v-5.5565Z" style="fill:#182339;"/><path d="M84.9618,53.6521c-.3117-.1321-.5629-.3242-.7537-.5768s-.2918-.5557-.303-.9094h.7326c.0112.2471.0883.4491.2315.6064.143.1573.3127.2707.5091.3409s.3876.1054.5725.1054c.3313,0,.616-.0718.8547-.2148.2384-.1433.3605-.3664.3661-.6695.0112-.3086-.0911-.5442-.3071-.7071-.2163-.1629-.5685-.2862-1.0567-.3705-1.319-.1908-1.9786-.727-1.9786-1.6081,0-.3086.0842-.5781.2527-.8081.1685-.2303.3956-.4068.6819-.5305.2862-.1234.6061-.1852.9597-.1852.3593,0,.6931.0674,1.002.202.3086.1349.557.3285.745.5809.188.2527.2847.5501.2903.8926h-.7322c-.0168-.3425-.1529-.602-.4084-.7789s-.5545-.2651-.8967-.2651c-.3086,0-.574.0827-.7956.2483s-.3326.3913-.3326.6775c0,.4886.4295.8028,1.2883.943.6903.1069,1.2053.2946,1.5447.5641.3397.2695.5094.6455.5094,1.1282,0,.511-.1865.8939-.5598,1.1493-.3733.2555-.8376.3829-1.3933.3829-.3705,0-.7114-.0659-1.0228-.1977Z" style="fill:#182339;"/><path d="M91.6841,53.4877c-.4376-.2412-.7869-.5765-1.048-1.0061-.2611-.4292-.3916-.9134-.3916-1.4521,0-.5501.129-1.0468.3873-1.4903.2583-.4432.6076-.7901,1.0483-1.0396.4404-.2499.9246-.3748,1.4524-.3748.533,0,1.0157.1237,1.448.3705.432.2471.773.5893,1.0228,1.0272.2496.4376.3745.929.3745,1.4732,0,.5333-.1262,1.0176-.3789,1.4524-.2524.4351-.5964.7773-1.0312,1.0272-.4351.2496-.9162.3745-1.444.3745-.5218,0-1.0017-.1206-1.4396-.3621ZM91.3307,52.0988c.1905.3254.4448.5824.7618.7702.317.1883.6611.2822,1.0312.2822.3761,0,.7214-.0939,1.0356-.2822.3142-.1877.5629-.446.7453-.7745.1821-.3282.2735-.6946.2735-1.0987,0-.4208-.0926-.7969-.2779-1.1282-.1852-.331-.4323-.5877-.7409-.7702s-.6483-.2738-1.0185-.2738c-.3705,0-.7173.0926-1.0399.2779s-.5796.4451-.7702.7789c-.1908.3341-.2862.7114-.2862,1.1322,0,.3988.0954.7608.2862,1.0862Z" style="fill:#182339;"/><path d="M98.2845,48.2091h2.0963c.7298,0,1.242.1657,1.5366.4967.2946.3313.442.7326.442,1.204,0,.4264-.1122.7885-.3369,1.0859-.2244.2977-.5865.4687-1.0859.5138l-.3705.0084,1.4396,2.2477h-.8923l-1.4144-2.2477h-.6228v2.2477h-.7916v-5.5565ZM100.3809,50.8444c.3929,0,.689-.0758.8883-.2275.1992-.1514.299-.3873.299-.7071,0-.2974-.0942-.5402-.2822-.7282s-.4923-.2822-.9134-.2822h-1.2963v1.945h1.3047Z" style="fill:#182339;"/><path d="M105.7987,53.6521c-.3117-.1321-.5629-.3242-.7537-.5768s-.2918-.5557-.303-.9094h.7326c.0112.2471.0883.4491.2315.6064.143.1573.3127.2707.5091.3409s.3876.1054.5725.1054c.3313,0,.616-.0718.8547-.2148.2384-.1433.3605-.3664.3661-.6695.0112-.3086-.0911-.5442-.3071-.7071-.2163-.1629-.5685-.2862-1.0567-.3705-1.319-.1908-1.9786-.727-1.9786-1.6081,0-.3086.0842-.5781.2527-.8081.1685-.2303.3956-.4068.6819-.5305.2862-.1234.6061-.1852.9597-.1852.3593,0,.6931.0674,1.002.202.3086.1349.557.3285.745.5809.188.2527.2847.5501.2903.8926h-.7322c-.0168-.3425-.1529-.602-.4084-.7789s-.5545-.2651-.8967-.2651c-.3086,0-.574.0827-.7956.2483s-.3326.3913-.3326.6775c0,.4886.4295.8028,1.2883.943.6903.1069,1.2053.2946,1.5447.5641.3397.2695.5094.6455.5094,1.1282,0,.511-.1865.8939-.5598,1.1493-.3733.2555-.8376.3829-1.3933.3829-.3705,0-.7114-.0659-1.0228-.1977Z" style="fill:#182339;"/></g></g></svg>