<svg version="1.1" id="Layer_1" xmlns:x="ns_extend;" xmlns:i="ns_ai;" xmlns:graph="ns_graphs;" xmlns="http://www.w3.org/2000/svg" xmlns:xlink="http://www.w3.org/1999/xlink" x="0px" y="0px" viewBox="0 0 300.2 53" style="enable-background:new 0 0 300.2 53;" xml:space="preserve">
 <style type="text/css">
  .st0{fill:#082321;}
 </style>
 <metadata>
  <sfw xmlns="ns_sfw;">
   <slices>
   </slices>
   <sliceSourceBounds bottomLeftOrigin="true" height="53" width="300.1" x="0" y="0">
   </sliceSourceBounds>
  </sfw>
 </metadata>
 <g>
  <path class="st0" d="M113.2,38.2l-2.4-5.5h-11l-2.4,5.5h-5.8l11.1-24.8h5.3l11.1,24.8H113.2L113.2,38.2z M105.3,19.9l-3.4,8h6.9
		L105.3,19.9L105.3,19.9z M135.9,38.2h-10.1V13.5h10.1c8.2,0,13.8,5.3,13.8,12.3v0.1C149.7,32.8,144,38.2,135.9,38.2L135.9,38.2z
		 M143.7,25.9c0-4.4-3.2-7.4-7.8-7.4h-4.4v14.9h4.4C140.5,33.3,143.7,30.3,143.7,25.9L143.7,25.9z M167.9,38.2h-10.1V13.5h10.1
		c8.2,0,13.8,5.3,13.8,12.3v0.1C181.7,32.8,176.1,38.2,167.9,38.2L167.9,38.2z M175.7,25.9c0-4.4-3.2-7.4-7.8-7.4h-4.4v14.9h4.4
		C172.6,33.3,175.7,30.3,175.7,25.9L175.7,25.9z M190.1,38.2V13.5h19.6v4.8h-13.9v5H208v4.8h-12.2v5.2h14.1v4.8L190.1,38.2
		L190.1,38.2L190.1,38.2z M229.5,30.8h-4.3v7.4h-5.7V13.5h10.6c6.2,0,9.9,3.5,9.9,8.5v0.1C240,27.8,235.3,30.8,229.5,30.8
		L229.5,30.8z M234.2,22.2c0-2.4-1.8-3.7-4.6-3.7h-4.4V26h4.5C232.6,26,234.2,24.3,234.2,22.2L234.2,22.2z M264.8,38.2l-2.4-5.5h-11
		l-2.4,5.5h-5.8l11.1-24.8h5.3l11.1,24.8H264.8L264.8,38.2z M256.9,19.9l-3.5,8h6.9C260.4,27.9,256.9,19.9,256.9,19.9z M293.5,38.2
		l-5.6-7.9h-4.5v7.9h-5.7V13.5h11.9c6.1,0,9.8,3.1,9.8,8.1v0.1c0,4-2.3,6.5-5.6,7.6l6.3,8.8L293.5,38.2L293.5,38.2z M293.6,22
		c0-2.3-1.7-3.5-4.5-3.5h-5.7v7.1h5.8C292,25.5,293.6,24.1,293.6,22L293.6,22z M32.3,0L0,53h25.3L57.5,0H32.3z">
  </path>
  <path class="st0" d="M80.8,53H55.5L40.4,28.1h25.3L80.8,53L80.8,53z">
  </path>
 </g>
</svg>