<svg fill="none" height="40" viewBox="0 0 80 27" width="112" xmlns="http://www.w3.org/2000/svg">
<path d="M32.21 15.203H21.014c.531 1.689 1.974 2.725 3.86 2.725 1.71 0 3.065-.8 3.772-1.689l2.888 2.518c-1.591 1.808-4.007 2.933-6.776 2.933-4.774 0-8.368-3.437-8.368-8 0-4.564 3.447-7.824 8.014-7.824 4.568 0 7.897 3.378 7.897 7.971 0 .415-.03.978-.088 1.363l-.003.003Zm-11.226-2.875h6.747c-.471-1.69-1.768-2.726-3.389-2.726-1.62 0-2.916 1.067-3.359 2.726h.001ZM33.3 13.78c0-4.505 3.477-7.913 8.103-7.913 3.035 0 5.568 1.452 6.953 3.764l-3.742 2.281c-.62-1.126-1.798-1.866-3.211-1.866-2.12 0-3.684 1.6-3.684 3.733s1.562 3.734 3.684 3.734c1.415 0 2.593-.74 3.211-1.867l3.742 2.282c-1.385 2.312-3.919 3.764-6.953 3.764-4.626 0-8.103-3.409-8.103-7.913Zm22.008 2.697-1.12 1.216v3.644h-4.301V0h4.301v11.853l4.95-5.63h5.569l-6.364 6.965 6.57 8.15h-5.656l-3.949-4.86Z" fill="currentColor"></path>
<path d="M63.795 13.78c0-4.505 3.477-7.913 8.103-7.913 4.626 0 8.103 3.408 8.103 7.912s-3.477 7.913-8.103 7.913c-4.626 0-8.103-3.409-8.103-7.913Zm11.785 0c0-2.134-1.561-3.734-3.683-3.734s-3.684 1.6-3.684 3.733 1.562 3.734 3.684 3.734 3.683-1.6 3.683-3.734ZM16.371 26.997h-4.704c-.118-.977-.942-1.63-2.15-1.63H4.832C1.916 25.367 0 23.677 0 21.159c0-1.6.796-3.14 2.062-3.91C.825 16.062.088 14.403.088 12.536c0-3.822 3.035-6.668 7.101-6.668 1.149 0 2.21.237 3.153.622.443-1.63 1.944-2.667 4.007-2.667h2.022v4.002h-1.816c-.707 0-1.267.355-1.415.919a6.574 6.574 0 0 1 1.179 3.793c0 3.823-3.065 6.668-7.131 6.668a7.807 7.807 0 0 1-2.21-.296c-.442.296-.678.712-.678 1.155 0 .682.56 1.127 1.355 1.127h4.684c3.375 0 6.03 2.5 6.03 5.808l.002-.003ZM4.508 12.536c0 1.481 1.148 2.578 2.681 2.578 1.533 0 2.71-1.097 2.71-2.578 0-1.482-1.178-2.579-2.71-2.579-1.531 0-2.681 1.097-2.681 2.579Z" fill="currentColor"></path>
</svg>