<svg version="1.1" id="Layer_1" xmlns="http://www.w3.org/2000/svg" xmlns:xlink="http://www.w3.org/1999/xlink" x="0px" y="0px" viewBox="0 0 162.3 40" style="enable-background:new 0 0 162.3 40;" xml:space="preserve">
 <style type="text/css">
  .st0{fill:#01C5D1;}
 </style>
 <g>
  <path class="st0" d="M130.3,10.8h-6.8c0,1.1-0.1,2.2-0.3,3.3h7.1V10.8z">
  </path>
  <polygon class="st0" points="34.3,29.2 34.3,10.8 38,10.8 38,18.4 44.7,18.4 44.7,10.8 48.4,10.8 48.4,29.2 44.7,29.2 44.7,21.6 
		38,21.6 38,29.2 	">
  </polygon>
  <polygon class="st0" points="69.5,29.2 69.5,10.8 72.9,10.8 80,22.2 80,10.8 83.7,10.8 83.7,29.2 80.3,29.2 73.2,17.7 73.2,29.2 	
		">
  </polygon>
  <polygon class="st0" points="90.7,29.2 90.7,14.1 85.5,14.1 85.5,10.8 99.6,10.8 99.6,14.1 94.5,14.1 94.5,29.2 	">
  </polygon>
  <path class="st0" d="M101.5,29.2V10.8h8c3.7,0,5.7,2.1,5.7,5.7c0,2.5-1.1,4.4-3,5.3l3.4,6.1v1.2h-3.6l-3.8-6.9h-2.8v6.9L101.5,29.2
		z M105.2,19.1h3.6c1.7,0,2.6-0.8,2.6-2.5c0-1.7-0.9-2.5-2.6-2.5h-3.6V19.1z">
  </path>
  <path class="st0" d="M133.8,27.9c-1.3-1.1-2-2.7-2-4.7h3.7c0,1.1,0.4,1.8,1.1,2.3c0.8,0.5,1.7,0.7,2.6,0.7c1.9,0,3-0.8,3-2
		c0-0.6-0.3-1-0.9-1.3c-0.3-0.2-0.7-0.4-1-0.5c-0.2-0.1-0.4-0.2-0.7-0.3c-0.3-0.1-1.2-0.4-1.7-0.6l-0.8-0.3
		c-1.4-0.6-2.2-0.9-3.3-1.7c-1.1-0.8-1.6-2-1.6-3.5c0-3.4,2.6-5.5,6.8-5.5c4.2,0,6.9,2,6.9,6.2h-3.7c0-2-1.4-2.8-3.3-2.8
		c-1.9,0-3,0.7-3,1.9c0,0.5,0.3,1,0.7,1.3c0.3,0.2,0.5,0.3,0.8,0.4c0.2,0.1,0.4,0.2,0.5,0.2l1.1,0.4l0.7,0.3
		c0.7,0.2,1.2,0.4,1.6,0.6l1.4,0.6c0.5,0.2,0.9,0.5,1.3,0.8c1,0.8,2,2,1.9,3.6c0,3.3-2.6,5.6-7.2,5.6
		C136.9,29.6,135.2,29,133.8,27.9">
  </path>
  <path class="st0" d="M149.9,27.9c-1.3-1.1-2-2.7-2-4.7h3.7c0,1.1,0.4,1.8,1.1,2.3c0.8,0.5,1.7,0.7,2.6,0.7c1.9,0,3-0.8,3-2
		c0-0.6-0.3-1-0.9-1.3c-0.3-0.2-0.7-0.4-1-0.5c-0.2-0.1-0.4-0.2-0.7-0.3c-0.3-0.1-1.2-0.4-1.7-0.6l-0.8-0.3
		c-1.4-0.6-2.2-0.9-3.3-1.7c-1.1-0.8-1.6-2-1.6-3.5c0-3.4,2.6-5.5,6.8-5.5c4.2,0,6.9,2,6.9,6.2h-3.7c0-2-1.4-2.8-3.3-2.8
		c-1.9,0-3,0.7-3,1.9c0,0.5,0.3,1,0.7,1.3c0.3,0.2,0.5,0.3,0.8,0.4c0.2,0.1,0.4,0.2,0.5,0.2l1.1,0.4l0.7,0.3
		c0.7,0.2,1.2,0.4,1.6,0.6l1.4,0.6c0.5,0.2,0.9,0.5,1.3,0.8c1,0.8,2,2,1.9,3.6c0,3.3-2.6,5.6-7.2,5.6C153,29.6,151.3,29,149.9,27.9">
  </path>
  <path class="st0" d="M122,25.9v-4.4h7v-3.1h-6.8c-0.1,0.2-0.1,0.5-0.2,0.7c-1,3.1-2.2,6.1-3.7,8.9v1.1h12v-3.3H122z">
  </path>
  <path class="st0" d="M122,10.8h-3.7v14.4c0.2-0.4,0.3-0.8,0.4-1.1c2-4.6,3-8.7,3.3-12.4C122,11.3,122.1,11.1,122,10.8L122,10.8z">
  </path>
  <path class="st0" d="M1,20.1c0.8-0.5,1.6-1,2.5-1.3c0,0-0.9-0.5-2.2-1.1C1.2,18.1,1,20.1,1,20.1">
  </path>
  <path class="st0" d="M7,0c-4.1,6.5,0.3,10.4,2,11.6C4.8,8.9,5.3,8.1,0.7,7.7c1.9,6.6,6.5,7.3,10.7,8.1C6.4,15.6,4,13.1,0,14.9
		C3,20,10.4,19,12.1,18.5c-4.6,1.8-6.6-1.4-11.7,3.2c6.1,2,11.8-0.9,11.8-0.9c-2.2,1.6-6.6,1.4-7.8,5c2.7,0.3,6-1.5,8.2-3.4
		c-2.4,2.7-6.4,2.9-6,5.8c4.8-0.7,6.8-4.8,7-5c-2,4.1-4.2,3.5-4,6.3c2.5,0,4.9-2.6,5.9-4.8c-0.4-1.3-0.2-2.7,0.3-3.9
		c0,3.1,1.4,6,3.8,7.9c-1.7-0.4-3-1.5-3.8-3.1c0,0,0,0,0,0.1c-0.7,2.3-3.2,4.2-5.2,5c2.2,0.3,10.5,3,10.2,9.3
		c1.3-3.1,1.2-5.4,0.4-7.2c-0.8-1.7-0.7-3.8,0.2-5.5c0.1-0.2,0.3-0.4,0.4-0.7c-2.3-3-2.7-5.8-1.9-7.9c1.3,2.3,4.5,2.5,5.6,2.3
		c0,0-0.5,3.6,2.3,5.6c-1.2-1.7-1.8-4.4-1.5-7.3">
  </path>
  <path class="st0" d="M26.3,19.3c-0.6,0.1-1.3,0-1.9,0c-0.4,0-0.7-0.1-1.1-0.2c-0.8-0.2-1.5-0.5-2.1-1.1c2.9,0.7,4.2,0.7,4.6,0.7
		l0.2,0c-0.2-1-0.8-3.2-3-6.3c0,0.8-0.1,1.7-0.3,2.5c-1.2-3.1-2.2-3.8-3.3-4.6c0.4,1.2,0.4,2.5,0.2,3.7c-0.9-3.1-4-4.6-4-4.6
		s3.3,5.5,0.4,9.5C19.3,7.8,5.1,9.4,7,0">
  </path>
  <path class="st0" d="M26.6,12.4C23,7.7,16.9,5.7,11.3,7.3c0.7,0.4,1.8,1.1,2.5,1.6c0.3,0,0.5-0.1,0.8-0.1c-0.2-0.4-0.4-0.8-0.6-1.1
		c0,0,1.2,0.6,2.2,1.1c0.8,0.1,1.5,0.2,2.3,0.4c-0.1-0.3-0.2-0.7-0.4-1c0.6,0.4,1.1,0.9,1.6,1.4c1,0.4,1.9,0.9,2.7,1.5l-0.1-1.2
		c0.5,0.8,1,1.6,1.4,2.4c0.4,0.4,0.8,0.9,1.2,1.3c1.2,1.5,1.9,3.3,2.3,5.2c0.1,0.7,0.2,1.5,0.2,2.2c0,0.5,0,1,0.1,1.5
		c0.2,1.2,0.5,2.3,1,3.4C30.2,21.4,29.5,16.3,26.6,12.4">
  </path>
  <path class="st0" d="M3.1,13c-0.2,0.3-0.3,0.5-0.5,0.8c0.4,0,1,0.1,1.6,0.1C3.8,13.5,3.4,13.2,3.1,13">
  </path>
  <path class="st0" d="M15,33.2c-5.8-0.1-10.8-4.3-11.8-10c-0.7,0-1.4-0.2-2.1-0.4c1,7.8,8.1,13.3,15.9,12.3c0.3,0,0.5-0.1,0.8-0.1
		C17.4,34.5,16.6,33.9,15,33.2">
  </path>
  <path class="st0" d="M26.3,27.1c-1.1-0.8-1.9-2.2-2-3.4c0.3,0,0.6-0.1,0.8-0.3c-0.2,0.1-0.5,0.1-0.7,0.1c0.3,0,0.6-0.2,0.7-0.6
		c-0.1,0.2-0.3,0.4-0.6,0.4c0.2-0.1,0.4-0.3,0.4-0.6c-0.1,0.2-0.3,0.4-0.6,0.5c0-0.4,0.1-0.9,0.3-1.3c-1.3-0.2-2.9-0.2-4.2-1.2
		c0,1.4,0.4,3.2,2.1,5.3l0.4,0.5l-0.4,0.6c-0.1,0.2-0.2,0.4-0.3,0.6c-0.8,1.4-0.8,3.2-0.1,4.7c0.4,1,0.7,2,0.7,3.1h0v0h0.1
		c0,0,1.4-0.5,1.3-1.5c-0.1-1-0.2-2.3,0.9-2.4c0,0,0.1,0,0.1,0c0,0,0.4-0.4-0.4-1c-0.1,0-0.2-0.1-0.3-0.1c0.3,0,0.7,0,0.9-0.2
		c0.4-0.2,0.7-0.5,0.4-0.8c-0.2-0.2-0.5-0.4-0.7-0.7c-0.1-0.1,0-0.3,0.1-0.4c0,0,0.1,0,0.1,0c0.4,0,0.8-0.3,1.1-1.1
		C26.4,27.2,26.4,27.1,26.3,27.1">
  </path>
  <path class="st0" d="M62.3,10.8h3.8v12.3c0,2-0.6,3.6-1.9,4.7c-1.3,1.1-3,1.7-5.2,1.7c-2.2,0-3.9-0.6-5.2-1.7
		c-1.3-1.1-1.9-2.7-1.9-4.7V10.8h3.7v12.5c0,1.6,1.2,2.9,3.4,2.9c2.2,0,3.3-1.3,3.3-2.9L62.3,10.8z">
  </path>
 </g>
</svg>