<svg height="45" viewBox="0 0 278 45" width="278" xmlns="http://www.w3.org/2000/svg"><path d="M119.591 0.869356L115.529 15.6843C115.529 16.0262 115.233 16.2552 114.893 16.2337C113.864 16.1685 113.828 16.182 112.966 16.182C106.505 16.182 104.764 17.6514 104.764 24.3853L104.767 42.4554C104.767 42.7623 104.52 43.0112 104.214 43.0112H94.5065C91.5581 43.0112 89.168 40.5709 89.168 37.6061V4.04635C89.168 3.78356 89.3508 3.55671 89.6065 3.50252L101.776 0.920315C102.118 0.847679 102.44 1.10913 102.443 1.46091L102.494 8.82894C102.499 9.05313 103.268 9.47354 103.564 8.7603C103.564 8.7603 104.55 6.21517 104.95 5.37586C107.024 1.0152 111.176 0 115.668 0C116.92 0 118.432 0.126638 119.18 0.331428C119.423 0.397789 119.591 0.61684 119.591 0.869356Z"></path><path d="M149.769 22.0301C149.769 17.2409 147.146 12.9306 142.147 12.9306C137.147 12.9306 134.525 17.2409 134.525 22.0301C134.525 26.8192 137.147 31.1293 142.147 31.1293C147.146 31.1293 149.769 26.8191 149.769 22.0301ZM118.543 22.0301C118.543 9.57819 127.886 -0.000191588 142.147 2.87415e-09C156.407 2.87415e-09 165.75 9.57819 165.75 22.0301C165.75 34.4819 156.407 44.0603 142.147 44.0603C127.886 44.0601 118.543 34.4819 118.543 22.0301Z"></path><path d="M196.443 0C186.975 0 184.6 8.60332 184.6 8.60351C184.272 9.31539 183.481 8.87376 183.481 8.64635L183.446 7.25034V1.64714C183.446 1.29197 183.109 1.02669 182.751 1.10014L168.307 4.05971C168.04 4.11442 167.85 4.3424 167.85 4.60672V37.6292C167.85 40.6111 170.34 43.0112 173.412 43.0112H183.527C183.845 43.0112 184.103 42.7609 184.103 42.4522V18.8851C184.103 15.2179 185.907 13.1479 189.437 13.1479C192.885 13.1479 194.608 15.6167 194.608 18.6447V37.6292C194.608 40.6111 197.098 43.0112 200.17 43.0112H210.285C210.603 43.0112 210.861 42.7609 210.861 42.4522V17.2118C210.861 6.85156 207.033 0 196.443 0Z"></path><path d="M215.499 3.11436C215.241 3.16904 215.057 3.39797 215.057 3.66316V37.594C215.057 40.5858 217.468 43.0112 220.442 43.0112H230.235C230.543 43.0112 230.792 42.7601 230.792 42.4504V0.561074C230.792 0.204735 230.466 -0.0612233 230.12 0.0122703L215.499 3.11436Z"></path><path d="M39.1882 25.9223L31.67 30.119C31.3406 30.3171 30.9347 30.3747 30.5733 30.2412C30.0642 30.053 29.6461 29.7559 29.5605 29.2719L27.542 18.5238C27.3984 17.7743 26.6045 17.1446 25.873 17.094L18.3287 16.7459C15.3997 16.6106 13.8316 15.0304 13.5497 14.6236C13.2273 14.158 13.3846 13.4384 13.9137 13.4309L40.3418 13.4093C40.6765 13.4093 40.9401 13.124 40.9079 12.7951C40.0929 4.48784 31.0116 0 19.8849 0C7.84252 0 0 5.74717 0 14.3669C0 21.7903 4.52718 25.3014 12.0443 26.5799L23.8467 28.5753C25.5442 28.8945 26.1906 29.9322 26.1906 31.0486C26.1906 33.0438 23.8467 34.0816 20.7753 34.0816C17.7535 34.0816 15.2287 32.8972 14.512 30.6606C14.4245 30.387 14.1401 30.2247 13.8559 30.2839L0.618524 33.0421C0.278219 33.113 0.0795467 33.4684 0.204299 33.7893C2.82604 40.5358 10.7782 44.0603 20.694 44.0603C32.0105 44.0603 40.9132 38.791 40.9132 28.8142C40.9132 28.3308 40.8903 27.4472 40.7871 26.9956C40.6317 26.3147 40.3676 25.789 39.7741 25.7589C39.5677 25.7486 39.3647 25.8162 39.1882 25.9223Z"></path><path d="M69.8799 28.0056C69.8838 31.516 67.6881 33.8337 63.6169 33.8374C60.9302 33.8412 59.0545 32.5666 59.0527 30.3327C59.049 28.0188 60.6769 26.7385 63.6076 26.3374L68.6974 25.6823L69.3226 25.5987C69.6072 25.5608 69.8619 25.7746 69.8674 26.0558L69.8799 26.6992C69.8779 26.6992 69.8799 28.0056 69.8799 28.0056ZM85.4505 43.0682C85.766 43.0679 86.0214 42.8169 86.0211 42.5078L85.9876 16.4932C85.9741 6.03885 78.5555 5.46792e-09 65.2832 5.46792e-09C53.3218 -0.000191546 45.1591 5.03244 43.029 12.7326C42.932 13.0833 43.2147 13.4285 43.5855 13.4279L57.3696 13.412C58.9831 13.4101 60.5239 12.8466 61.8149 11.898C62.6508 11.2835 63.7678 10.9343 65.1346 10.932C68.309 10.9282 69.859 12.843 69.8627 14.9966C69.8627 14.9966 69.8742 15.7785 69.8799 15.7785L72.007 17.8275C72.5687 18.378 71.8594 19.1117 71.516 18.9916L69.3754 18.0049C68.1814 17.4563 66.8922 17.137 65.5764 17.236L63.4324 17.3984C51.4644 18.2922 42.9983 21.0952 43.0116 30.9112C43.0231 39.2905 48.8918 44.0716 58.1747 44.0603C64.0874 44.0528 68.5471 41.278 70.2247 37.986L70.2264 37.9802L70.613 37.1424C70.7082 36.9353 71.6089 36.8512 71.6051 37.6295C71.5821 40.6344 74.0632 43.0815 77.1293 43.0778L85.4505 43.0682Z"></path><path d="M277.402 28.9486L272.794 27.9835L264.178 26.1824C263.822 26.1077 263.459 26.2943 263.327 26.6303C262.363 29.0511 260.383 31.1287 256.88 31.1287C252.3 31.1287 250.026 27.2984 249.684 23.1511C249.661 22.9008 249.648 22.6489 249.642 22.397C249.639 22.2757 249.637 22.1523 249.637 22.0293C249.637 21.9078 249.639 21.7846 249.642 21.6634C249.648 21.4095 249.661 21.1576 249.684 20.9073C250.026 16.76 252.302 12.9297 256.88 12.9297C260.383 12.9297 262.363 15.0071 263.325 17.43C263.459 17.766 263.822 17.9507 264.178 17.8762L272.794 16.0748L277.402 15.1117C277.825 15.0221 278.089 14.5965 277.972 14.1821C275.563 5.5772 267.755 0 256.801 0C242.713 0 233.939 9.73779 233.939 22.0293C233.939 34.3208 242.713 44.0603 256.801 44.0603C267.755 44.0603 275.563 38.4848 277.972 29.8782C278.089 29.4638 277.825 29.0383 277.402 28.9486Z"></path></svg>